# xmcd
#
# Track frame offsets:
#	150
#	17630
#	27984
#	41799
#	50443
#	62793
#	74477
#	87640
#
# Disc length: 1324 seconds
#
# Revision: 1
# Processed by: cddbd v1.5.2PL0 Copyright (c) Steve Scherf et al.
# Submitted via: audiograbber 1.83.01
#
DISCID=70052a08
DTITLE=Various Artist - Hillcrest #52
DYEAR=1900
DGENRE=Country
TTITLE0=Larry Branson - This Lonely Heart
TTITLE1=Peggy Rains - Detour
TTITLE2=Philip Norris - Here I Am
TTITLE3=Larry Ford - Sty Away From Me
TTITLE4=Janay James - A Misty Morning Memory
TTITLE5=Brian Dolph - Dancin' Round My Cowboy Hat
TTITLE6=Babs Winn - If It Didn't Work Once (It Ain't Gonna Work Twice)
TTITLE7=Dale McKay - The Rose That Stands By Me
EXTD=
EXTT0=
EXTT1=
EXTT2=
EXTT3=
EXTT4=
EXTT5=
EXTT6=
EXTT7=
PLAYORDER=
